<svg width="21" height="25" viewBox="0 0 21 25" fill="none" xmlns="http://www.w3.org/2000/svg">
<path d="M16.9958 13.3307C17.0196 11.4816 18.0127 9.73192 19.588 8.76341C18.5942 7.34406 16.9296 6.44415 15.1977 6.38997C13.3506 6.19608 11.5598 7.49528 10.6185 7.49528C9.65905 7.49528 8.2098 6.40922 6.64919 6.44133C4.61502 6.50705 2.71865 7.66357 1.72898 9.44198C-0.398418 13.1252 1.18843 18.5384 3.2263 21.5157C4.24589 22.9736 5.4375 24.6021 6.9967 24.5443C8.52246 24.481 9.09231 23.5714 10.934 23.5714C12.7587 23.5714 13.2933 24.5443 14.8841 24.5076C16.5214 24.481 17.5529 23.0432 18.5367 21.5715C19.2693 20.5327 19.833 19.3846 20.207 18.1698C18.2829 17.356 16.998 15.4197 16.9958 13.3307Z" fill="white"/>
<path d="M13.991 4.43197C14.8836 3.36034 15.3234 1.98294 15.2169 0.592285C13.8531 0.735528 12.5933 1.38734 11.6886 2.41786C10.8039 3.42472 10.3435 4.77788 10.4305 6.11539C11.7948 6.12943 13.136 5.49529 13.991 4.43197Z" fill="white"/>
</svg>
