<svg width="95" height="20" viewBox="0 0 95 20" fill="none" xmlns="http://www.w3.org/2000/svg">
<path d="M30.6999 5.92635C28.1127 5.92635 26.004 7.89426 26.004 10.6047C26.004 13.2986 28.1127 15.283 30.6999 15.283C33.2882 15.283 35.3969 13.2986 35.3969 10.6047C35.3958 7.89426 33.2871 5.92635 30.6999 5.92635ZM30.6999 13.4416C29.282 13.4416 28.0599 12.2723 28.0599 10.6058C28.0599 8.92165 29.2831 7.76995 30.6999 7.76995C32.1178 7.76995 33.3399 8.92165 33.3399 10.6058C33.3399 12.2712 32.1178 13.4416 30.6999 13.4416ZM20.4545 5.92635C17.8673 5.92635 15.7586 7.89426 15.7586 10.6047C15.7586 13.2986 17.8673 15.283 20.4545 15.283C23.0428 15.283 25.1515 13.2986 25.1515 10.6047C25.1515 7.89426 23.0428 5.92635 20.4545 5.92635ZM20.4545 13.4416C19.0366 13.4416 17.8145 12.2723 17.8145 10.6058C17.8145 8.92165 19.0377 7.76995 20.4545 7.76995C21.8724 7.76995 23.0945 8.92165 23.0945 10.6058C23.0956 12.2712 21.8724 13.4416 20.4545 13.4416ZM8.26868 7.36295V9.34735H13.0185C12.8766 10.4639 12.5048 11.279 11.9372 11.8455C11.2464 12.5363 10.1651 13.2986 8.26868 13.2986C5.34488 13.2986 3.05908 10.9413 3.05908 8.01745C3.05908 5.09365 5.34488 2.73635 8.26868 2.73635C9.84608 2.73635 10.9978 3.35675 11.8481 4.15425L13.2484 2.75395C12.0604 1.61985 10.4841 0.751954 8.26868 0.751954C4.26358 0.751954 0.896484 4.01235 0.896484 8.01745C0.896484 12.0226 4.26358 15.283 8.26868 15.283C10.4302 15.283 12.0615 14.5735 13.3364 13.2447C14.6476 11.9335 15.0557 10.0899 15.0557 8.60155C15.0557 8.14175 15.0205 7.71605 14.949 7.36185H8.26868V7.36295ZM58.1075 8.90405C57.7181 7.85905 56.5301 5.92635 54.1024 5.92635C51.6923 5.92635 49.6892 7.82275 49.6892 10.6047C49.6892 13.2271 51.6747 15.283 54.3323 15.283C56.4762 15.283 57.717 13.9718 58.2318 13.2095L56.6368 12.1458C56.1055 12.9257 55.3784 13.4394 54.3323 13.4394C53.2873 13.4394 52.5426 12.9609 52.0641 12.0215L58.3198 9.43425L58.1075 8.90405ZM51.7275 10.4639C51.6747 8.65545 53.1278 7.73475 54.1739 7.73475C54.989 7.73475 55.6798 8.14285 55.9108 8.72695L51.7275 10.4639ZM46.6422 15.0003H48.697V1.24915H46.6422V15.0003ZM43.274 6.97245H43.2036C42.7427 6.42245 41.8561 5.92635 40.7407 5.92635C38.401 5.92635 36.2571 7.98225 36.2571 10.6234C36.2571 13.2458 38.401 15.2841 40.7407 15.2841C41.8572 15.2841 42.7427 14.788 43.2036 14.2215H43.274V14.8947C43.274 16.6844 42.317 17.6414 40.7759 17.6414C39.5175 17.6414 38.7376 16.7383 38.4186 15.976L36.6289 16.7207C37.1426 17.9604 38.5066 19.485 40.7759 19.485C43.186 19.485 45.2243 18.0671 45.2243 14.6109V6.21125H43.2751V6.97245H43.274ZM40.9178 13.4416C39.4999 13.4416 38.313 12.2536 38.313 10.6234C38.313 8.97445 39.4999 7.76995 40.9178 7.76995C42.317 7.76995 43.4159 8.97445 43.4159 10.6234C43.4159 12.2536 42.317 13.4416 40.9178 13.4416ZM67.7369 1.24915H62.8188V15.0003H64.8703V9.79065H67.7358C70.0106 9.79065 72.248 8.14395 72.248 5.52045C72.248 2.89695 70.0117 1.24915 67.7369 1.24915ZM67.7897 7.87665H64.8703V3.16315H67.7897C69.3242 3.16315 70.1954 4.43365 70.1954 5.52045C70.1954 6.58525 69.3242 7.87665 67.7897 7.87665ZM80.4749 5.90215C78.9888 5.90215 77.4499 6.55665 76.813 8.00756L78.6346 8.76765C79.024 8.00755 79.75 7.75895 80.5101 7.75895C81.5716 7.75895 82.6507 8.39585 82.6683 9.52775V9.66965C82.2965 9.45735 81.5001 9.13945 80.5277 9.13945C78.5642 9.13945 76.5644 10.2186 76.5644 12.2349C76.5644 14.0752 78.1748 15.2599 79.9788 15.2599C81.3582 15.2599 82.1194 14.6406 82.5968 13.9146H82.6672V14.9761H84.6494V9.70376C84.6505 7.26396 82.8267 5.90215 80.4749 5.90215ZM80.2263 13.4383C79.5553 13.4383 78.617 13.1017 78.617 12.2701C78.617 11.2086 79.7852 10.8016 80.7939 10.8016C81.6948 10.8016 82.1205 10.9963 82.6683 11.2614C82.5088 12.5363 81.4121 13.4383 80.2263 13.4383ZM91.8676 6.20245L89.5147 12.1645H89.4443L87.0023 6.20245H84.7913L88.4532 14.535L86.3654 19.1704H88.506L94.1501 6.20245H91.8676ZM73.381 15.0003H75.4325V1.24915H73.381V15.0003Z" fill="white"/>
</svg>
